Results
version=1
nRows=9
nColumns=38
inDegrees=yes
endheader
time	pelvis_tilt	pelvis_list	pelvis_rotation	pelvis_tx	pelvis_ty	pelvis_tz	hip_flexion_r	hip_adduction_r	hip_rotation_r	knee_angle_r	ankle_angle_r	subtalar_angle_r	mtp_angle_r	hip_flexion_l	hip_adduction_l	hip_rotation_l	knee_angle_l	ankle_angle_l	subtalar_angle_l	mtp_angle_l	lumbar_extension	lumbar_bending	lumbar_rotation	arm_flex_r	arm_add_r	arm_rot_r	elbow_flex_r	pro_sup_r	wrist_flex_r	wrist_dev_r	arm_flex_l	arm_add_l	arm_rot_l	elbow_flex_l	pro_sup_l	wrist_flex_l	wrist_dev_l
      0.75500000	      5.77839339	     -1.03996819	     -3.13868717	     -0.01680507	      0.93995187	      0.00813159	     -6.35672244	     -1.67011848	      0.00026132	     -1.17968554	      0.00022852	      0.00000000	      0.00000000	     -7.48966105	     -3.64982468	      0.00016022	     -0.33185086	      0.00035284	      0.00000000	      0.00000000	    -12.06532893	      3.23115948	      3.18553832	     -2.92215125	     -6.71763848	    -22.93183770	     27.96800059	     97.25718464	      0.00000000	      0.00000000	     -1.05793055	     -8.62771670	     -1.90636962	     32.56246671	    138.32384715	      0.00000000	      0.00000000
      0.76000000	      5.79128681	     -1.04523703	     -3.14622864	     -0.01680718	      0.93996941	      0.00811547	     -6.37176556	     -1.66954587	      0.00022966	     -1.17638702	      0.00024254	      0.00000000	      0.00000000	     -7.50654894	     -3.65260579	      0.00024595	     -0.32713483	      0.00036208	      0.00000000	      0.00000000	    -12.08071700	      3.23529665	      3.17128542	     -2.93706067	     -6.79066851	    -22.63737493	     27.94910361	     98.79532561	      0.00000000	      0.00000000	     -1.11140470	     -8.64683289	     -1.50314507	     32.55444543	    136.61850611	      0.00000000	      0.00000000
      0.76500000	      5.75255741	     -1.04045943	     -3.12855621	     -0.01681774	      0.93991882	      0.00811515	     -6.32170714	     -1.66626696	      0.00020231	     -1.19872411	      0.00027624	      0.00000000	      0.00000000	     -7.45857686	     -3.64570665	      0.00022087	     -0.33920803	      0.00038580	      0.00000000	      0.00000000	    -12.03709682	      3.23443296	      3.16764151	     -2.85781505	     -6.69031645	    -23.21793672	     27.80101852	     97.63184988	      0.00000000	      0.00000000	     -1.06729813	     -8.62390508	     -1.88329175	     32.56607674	    138.25229123	      0.00000000	      0.00000000
      0.77000000	      5.77720749	     -1.05915179	     -3.13546560	     -0.01679449	      0.93992685	      0.00811309	     -6.36089602	     -1.64965234	      0.00021317	     -1.17287383	      0.00027636	      0.00000000	      0.00000000	     -7.49564724	     -3.66853944	      0.00017080	     -0.32247150	      0.00041452	      0.00000000	      0.00000000	    -12.06131141	      3.25192441	      3.18977250	     -3.05432029	     -6.82217922	    -22.25150209	     28.11534635	     99.07504057	      0.00000000	      0.00000000	     -1.14848532	     -8.73364007	     -1.16700189	     32.74620696	    137.25669326	      0.00000000	      0.00000000
      0.77500000	      5.78171212	     -1.04332047	     -3.12960905	     -0.01679155	      0.93995128	      0.00809125	     -6.35574522	     -1.66573680	      0.00024835	     -1.19069817	      0.00023493	      0.00000000	      0.00000000	     -7.49524065	     -3.65083921	      0.00015855	     -0.32852904	      0.00038237	      0.00000000	      0.00000000	    -12.07253216	      3.24227112	      3.16166283	     -2.91903219	     -6.71202160	    -22.97317232	     27.96735767	     97.52062866	      0.00000000	      0.00000000	     -1.07710723	     -8.63248761	     -1.91696616	     32.60045405	    138.55483991	      0.00000000	      0.00000000
      0.78000000	      5.80849563	     -1.04292570	     -3.13752648	     -0.01677531	      0.93997133	      0.00809680	     -6.39594614	     -1.67007004	      0.00022750	     -1.17031796	      0.00029925	      0.00000000	      0.00000000	     -7.52935816	     -3.64555845	      0.00017239	     -0.31929669	      0.00039678	      0.00000000	      0.00000000	    -12.09643377	      3.23659787	      3.16832449	     -2.94580860	     -6.76434035	    -22.74460559	     27.96046784	     98.68078311	      0.00000000	      0.00000000	     -1.08644030	     -8.65780937	     -1.60831472	     32.57592766	    137.21679155	      0.00000000	      0.00000000
      0.78500000	      5.80298002	     -1.05632273	     -3.13450546	     -0.01676110	      0.93996788	      0.00811033	     -6.38913092	     -1.65272344	      0.00021169	     -1.18059858	      0.00028832	      0.00000000	      0.00000000	     -7.52256520	     -3.65849726	      0.00022005	     -0.33293163	      0.00042478	      0.00000000	      0.00000000	    -12.09095796	      3.25146562	      3.17100034	     -2.82037625	     -6.67709843	    -23.50078781	     27.76590132	     98.07566486	      0.00000000	      0.00000000	     -1.05581736	     -8.61516290	     -1.94063242	     32.53452105	    137.92381025	      0.00000000	      0.00000000
      0.79000000	      5.79575143	     -1.04841310	     -3.12473579	     -0.01679536	      0.93994505	      0.00808223	     -6.38767762	     -1.66020264	      0.00025458	     -1.15828755	      0.00020944	      0.00000000	      0.00000000	     -7.51317718	     -3.64972602	      0.00020346	     -0.32629183	      0.00040272	      0.00000000	      0.00000000	    -12.09109709	      3.24698960	      3.14005843	     -2.87031181	     -6.72815070	    -23.14169760	     27.85465413	     98.64107509	      0.00000000	      0.00000000	     -1.10365429	     -8.65082324	     -1.71338554	     32.61433080	    137.27935265	      0.00000000	      0.00000000
      0.79500000	      5.86464581	     -1.05887025	     -3.12120866	     -0.01672373	      0.94002662	      0.00808717	     -6.47039203	     -1.65252217	      0.00019739	     -1.15498662	      0.00025528	      0.00000000	      0.00000000	     -7.60454202	     -3.65761629	      0.00020732	     -0.30695875	      0.00042750	      0.00000000	      0.00000000	    -12.16258219	      3.25418043	      3.13439922	     -2.82567230	     -6.69025251	    -23.45142572	     27.82231232	     98.52795042	      0.00000000	      0.00000000	     -1.08486682	     -8.60665726	     -1.97762721	     32.55431813	    137.50026569	      0.00000000	      0.00000000
